<svg width="8" height="16" viewBox="0 0 8 16" fill="none" xmlns="http://www.w3.org/2000/svg">
<path d="M4.65475 15.399C4.66094 15.358 4.6638 15.3166 4.6633 15.2752V2.22039L4.73004 2.37422C4.79643 2.52459 4.88679 2.66138 4.99702 2.77847L6.84247 4.75682C7.07449 5.01737 7.44773 5.06115 7.72682 4.86057C8.02423 4.62711 8.0888 4.17941 7.87103 3.86057C7.85343 3.83481 7.83424 3.81033 7.81359 3.78732L4.47642 0.209847C4.21591 -0.0697327 3.79332 -0.0699787 3.53252 0.209288L0.194826 3.78732C-0.0654521 4.06713 -0.0648684 4.52015 0.19614 4.79919C0.216685 4.82115 0.238543 4.84165 0.261569 4.86057C0.540661 5.06115 0.913903 5.01737 1.14592 4.75682L2.99471 2.78205C3.09274 2.67708 3.17494 2.55638 3.23833 2.4243L3.32843 2.20966L3.32843 15.2358C3.31577 15.6013 3.55394 15.922 3.88908 15.9907C4.25293 16.0539 4.59572 15.789 4.65475 15.399Z" fill="#FF9839"/>
</svg>
