<svg width="120" height="91" viewBox="0 0 120 91" fill="none" xmlns="http://www.w3.org/2000/svg">
<path d="M110.27 82.3127C109.405 85.7876 108.757 87.9594 108.324 88.1766C105.081 90.5656 16.8649 94.2578 11.4595 85.7876C10.5946 84.4845 7.13513 80.358 6.05405 76.4487C5.83783 75.7971 5.62162 74.9284 5.4054 74.2768C-3.8919 35.401 1.08108 6.73269 3.02702 5.86396C18.1622 -0.651556 116.108 -1.95466 119.351 2.82338C122.162 6.94988 114.595 63.6348 110.27 82.3127Z" fill="url(#paint0_linear_3_53335)"/>
<path opacity="0.4" d="M119.568 3.04057C118.919 -3.04058 111.568 25.4105 109.405 47.5632C107.676 63.6348 107.459 86.0048 107.892 87.0907C108.541 88.1766 122.162 29.3198 119.568 3.04057Z" fill="#C60055"/>
<path opacity="0.4" d="M110.27 82.3127C109.405 85.7876 108.757 87.9594 108.324 88.1766C105.081 90.5656 16.8649 94.2578 11.4595 85.7876C10.5946 84.4845 6.48648 78.4033 5.62161 74.2769C10.1622 84.0501 25.9459 91.4344 63.5676 90.1313C101.189 88.8282 107.459 87.5251 110.27 82.3127Z" fill="#C60055"/>
<path opacity="0.4" d="M3.02702 5.86395C2.59458 9.33889 29.4054 44.7398 47.3513 53.4272C65.2973 62.1145 109.405 8.68734 119.568 3.04056C119.568 3.04056 120 3.47493 120 5.86395C120 8.25297 79.1351 39.0931 71.3513 47.5632C63.7838 56.0334 102.486 86.4391 108.541 88.3938C108.541 88.3938 107.027 89.2625 106.162 89.0453C105.297 88.3938 74.8108 66.0238 67.027 50.3866C67.027 50.3866 58.5946 57.7709 53.6216 57.9881C48.6486 58.2052 43.027 51.4725 41.7297 51.0382C41.7297 51.0382 17.2973 73.6253 14.4865 87.0907C14.4865 87.0907 14.4865 88.1766 12.973 85.7876C11.4594 83.3985 39.7838 51.2554 39.7838 50.6038C39.7838 49.9522 11.6757 23.2386 3.02702 5.86395Z" fill="#C60055"/>
<path opacity="0.4" d="M44.3243 51.9069C44.3243 51.9069 50.8108 60.8115 53.8378 60.8115C59.4594 60.8115 66.1622 59.2912 84.3243 43.2196C116.973 14.3341 118.054 3.9093 118.054 3.9093C118.054 3.9093 107.243 14.5513 89.9459 30.4057C72.6486 46.2601 59.4594 52.9928 55.5676 54.2959C52.1081 55.3819 44.3243 51.9069 44.3243 51.9069Z" fill="#C60055"/>
<path opacity="0.3" d="M119.568 3.04058C119.135 2.8234 106.811 -1.73746 76.3243 3.04058C44.973 7.81862 8.86486 1.08593 4.75675 7.16707C0.432429 13.031 1.94594 19.7637 1.51351 33.4463C1.08108 46.4773 5.18919 71.8878 5.62162 74.2769C-3.8919 35.401 1.08108 6.73271 3.02702 5.86397C18.1622 -0.651544 116.108 -1.73746 119.568 3.04058Z" fill="#C60055"/>
<path opacity="0.3" d="M7.78377 7.38423C5.62161 8.47015 18.3784 23.2386 30.054 37.1384C41.7297 51.0382 62.054 49.7351 75.2432 40.8305C88.4324 31.926 113.73 6.73268 112.432 3.90929C111.135 1.0859 81.0811 4.12647 56.6486 5.42958C32 6.73268 11.2432 5.64676 7.78377 7.38423Z" fill="#FFB64A"/>
<path opacity="0.2" d="M14.2703 86.8735C12.973 83.8329 28.7568 65.3723 56.2162 65.8067C83.6757 66.4582 103.135 88.611 103.135 88.611C103.135 88.611 46.0541 94.2577 14.2703 86.8735Z" fill="#EB5694"/>
<path opacity="0.4" d="M87.7838 73.1909C87.7838 73.1909 94.0541 79.7064 99.027 83.6157C104.216 87.525 105.946 88.8281 105.946 88.8281C105.946 88.8281 108.108 89.6969 108.973 87.0907C109.838 84.2673 100.541 84.4845 87.7838 73.1909Z" fill="#C60055"/>
<path d="M68.7567 53.4272C67.027 52.3413 73.9459 65.5895 84.3243 74.0596C94.4865 82.5298 103.135 87.0907 103.135 87.0907C103.135 87.0907 89.5135 73.1909 68.7567 53.4272Z" fill="#FFD8A7"/>
<path d="M15.1351 84.2673C15.1351 84.2673 31.3513 61.2458 41.7297 50.821C41.7297 51.0382 21.1892 64.2864 15.1351 84.2673Z" fill="#FFD8A7"/>
<path opacity="0.4" d="M109.405 45.6086C107.676 68.4129 115.459 46.6945 117.838 33.4463C120.216 20.1981 118.054 5.21242 118.054 3.90931C118.054 2.38903 110.919 26.2792 109.405 45.6086Z" fill="#C60055"/>
<path opacity="0.2" d="M16.8649 47.1289C17.0811 44.5227 20.3243 44.7399 20.7568 45.8258C21.1892 46.9117 20.1081 49.5179 18.5946 49.9523C17.0811 50.3866 16.8649 48.432 16.8649 47.1289Z" fill="#C60055"/>
<path opacity="0.2" d="M92.5405 11.5107C92.7567 8.90454 96 9.12172 96.4324 10.2076C96.8649 11.2936 95.7838 13.8998 94.2703 14.3341C92.7567 14.5513 92.5405 12.5967 92.5405 11.5107Z" fill="#C60055"/>
<path opacity="0.2" d="M15.7838 45.1742C17.7297 42.7852 15.3513 34.9666 9.94594 35.4009C4.54054 35.8353 7.13513 43.6539 9.94594 45.6086C12.5405 47.3461 14.7027 46.2601 15.7838 45.1742Z" fill="#C60055"/>
<path d="M53.6216 54.2959C51.027 53.8616 85.8378 33.8807 85.8378 33.8807C85.8378 33.8807 65.7297 52.1241 53.6216 54.2959Z" fill="#FFC59F"/>
<path opacity="0.4" d="M3.02702 5.86395C3.02702 5.86395 5.83783 15.6372 15.7838 28.4511C25.7297 41.2649 44.3243 51.9069 44.3243 51.9069C44.3243 51.9069 14.2703 27.7995 3.02702 5.86395Z" fill="#C60055"/>
<path d="M44.1081 29.7542C35.6757 33.0119 32.4324 38.8759 31.3514 49.3007C30.0541 59.7255 53.1892 73.1909 63.7838 64.0692C74.3784 55.1647 73.9459 41.2649 70.9189 33.6635C67.8919 26.2792 48.6487 28.0167 44.1081 29.7542Z" fill="url(#paint1_linear_3_53335)"/>
<path opacity="0.8" d="M65.9459 47.1289C65.9459 54.7303 59.6757 61.0286 52.1081 61.0286C44.5405 61.0286 38.2703 54.7303 38.2703 47.1289C38.2703 39.5274 44.5405 33.2291 52.1081 33.2291C59.6757 33.2291 65.9459 39.5274 65.9459 47.1289Z" fill="#D40055"/>
<path d="M53.8378 59.5083C60.4056 59.5083 65.7297 53.9659 65.7297 47.1289C65.7297 40.2919 60.4056 34.7494 53.8378 34.7494C47.2701 34.7494 41.946 40.2919 41.946 47.1289C41.946 53.9659 47.2701 59.5083 53.8378 59.5083Z" fill="#F20041"/>
<path opacity="0.8" d="M32.2162 54.0787C32.2162 54.0787 39.1351 63.4177 51.8919 64.9379C64.6486 66.4582 69.8378 56.4678 71.3514 48.432C72.8649 40.3962 68.973 31.4916 68.973 31.4916C68.973 31.4916 71.3514 33.2291 71.7838 34.7494C72.2162 36.2697 73.2973 52.7756 73.7297 57.3365C74.1622 61.8974 67.027 68.6301 54.9189 69.4988C42.8108 70.1503 34.8108 58.8568 32.2162 54.0787Z" fill="#C90055"/>
<path opacity="0.5" d="M38.2703 45.3914C38.9189 52.5585 37.4054 50.1694 43.2432 41.2649C49.0811 32.3604 63.3513 39.9618 64.6486 41.2649C65.9459 42.568 60.3243 31.2745 50.1622 33.2291C40 34.9666 38.2703 45.3914 38.2703 45.3914Z" fill="#A10055"/>
<path opacity="0.3" d="M32.2162 52.3413C33.2973 57.1193 38.2703 57.1193 39.3514 56.685C40.4324 56.2506 35.6757 48.8663 38.7027 40.6134C41.946 32.1432 49.5135 29.537 58.8108 33.2291C68.1081 36.9212 68.1081 33.0119 67.2433 31.4916C66.3784 29.9714 49.5135 25.4105 40.6487 31.4916C31.7838 37.5728 31.7838 49.7351 32.2162 52.3413Z" fill="#FFB64A"/>
<path opacity="0.3" d="M56.8649 64.9379C54.2703 62.7661 64 57.1193 67.2432 50.3866C70.4865 43.6539 70.0541 52.1241 68.1081 57.5537C66.1622 63.2004 56.8649 64.9379 56.8649 64.9379Z" fill="#FFB64A"/>
<path d="M54.4865 29.1026C51.8919 29.7542 57.0811 33.4463 61.1892 33.0119C65.2973 32.3604 60.3243 27.7995 54.4865 29.1026Z" fill="white"/>
<path d="M56.8649 64.2864C55.5676 64.0692 59.4595 60.5943 60.5406 61.0286C61.8378 61.463 59.8919 64.9379 56.8649 64.2864Z" fill="white"/>
<path opacity="0.2" d="M78.4865 57.3365C78.9189 61.8974 98.8108 82.3126 104.216 83.6157C109.622 84.9188 105.514 47.3461 105.297 37.1384C105.081 26.9308 78.0541 51.9069 78.4865 57.3365Z" fill="#EB5694"/>
<path opacity="0.2" d="M84.3243 74.0597C77.8378 70.8019 87.5676 81.4439 91.8919 85.3532C96.4324 89.2625 102.27 88.611 103.135 88.1766C104 87.9594 91.4595 81.0095 84.3243 74.0597Z" fill="#DC6A94"/>
<path d="M6.7027 9.3389C11.2432 16.2888 22.0541 9.3389 35.8919 6.94988C49.7297 4.77805 15.3513 3.25776 10.3784 4.77805C5.4054 6.29833 6.7027 9.3389 6.7027 9.3389Z" fill="#FFD8A7"/>
<defs>
<linearGradient id="paint0_linear_3_53335" x1="60.0473" y1="91.0819" x2="60.0473" y2="-7.69839e-06" gradientUnits="userSpaceOnUse">
<stop stop-color="#FFA274"/>
<stop offset="1" stop-color="#FFC488"/>
</linearGradient>
<linearGradient id="paint1_linear_3_53335" x1="52.0463" y1="67.1278" x2="52.0463" y2="28.3032" gradientUnits="userSpaceOnUse">
<stop stop-color="#DE0086"/>
<stop offset="1" stop-color="#FF003B"/>
</linearGradient>
</defs>
</svg>
